<?xml version="1.0" encoding="UTF-8"?> <svg xmlns="http://www.w3.org/2000/svg" width="172" height="32" viewBox="0 0 172 32"><path fill="#DA291C" fill-rule="nonzero" d="M25.615 26.607c-1.205.602-3.079 1.286-5.24 1.286-6.814 0-12.57-5.938-14.596-11.18-.575.658-1.664 2.674-1.664 5.815 0 4.497 4.084 8.69 10.852 8.69 4.28 0 8.03-1.87 10.648-4.611m-21.14.201c-.583-1.242-1.248-3.174-1.248-5.399 0-7.022 5.763-12.95 10.853-15.038-.64-.593-2.596-1.715-5.647-1.715C4.07 4.656 0 8.863 0 15.839c0 4.407 1.814 8.272 4.475 10.97M4.281 5.027c1.206-.6 3.079-1.286 5.241-1.286 6.813 0 12.569 5.936 14.595 11.18.575-.659 1.665-2.673 1.665-5.817 0-4.496-4.085-8.689-10.854-8.689C10.65.416 6.9 2.285 4.281 5.028m25.616 10.77c0 6.973-4.07 11.18-8.435 11.18-3.05 0-5.005-1.122-5.646-1.713 5.09-2.089 10.853-8.018 10.853-15.039 0-2.227-.664-4.159-1.25-5.4a15.611 15.611 0 0 1 4.478 10.971zm140.756 9.035h.543v2.575h-.348v-2.15h-.009l-.825 2.15h-.228l-.822-2.15h-.008v2.15h-.34v-2.575h.547l.744 1.979h.011l.735-1.979zm-3.243 2.575h-.349v-2.256h-.801v-.318h1.954v.318h-.804v2.256zM153.445 10.1c0 1.634 1.37 2.398 3.135 3.366l1.498.822c3.172 1.74 5.101 3.59 5.101 6.512 0 4.115-3.443 6.897-8.051 6.897-3.77 0-6.325-1.344-6.643-1.54l1.086-3.426c.33.185 2.275 1.392 5.481 1.392 1.877 0 3.756-.95 3.756-2.953 0-1.762-1.36-2.56-3.208-3.573l-1.612-.885c-2.232-1.224-4.912-2.978-4.912-6.38 0-3.411 2.642-6.402 7.559-6.402 3.208 0 4.943.597 5.257.696V8.5c-.393-.154-2.346-1.019-4.873-1.019-1.885 0-3.574.785-3.574 2.618zm-17.703 4.83c3.441 0 4.152-2.217 4.152-3.66 0-1.234-.618-3.593-4.152-3.593h-2.676v7.253h2.676zm-6.673-10.704h6.778c6.21 0 8.149 3.971 8.149 7.068 0 4.342-3.191 6.003-4.112 6.357v.147c.44.131 1.383.589 2.605 2.85l3.72 6.76h-4.605l-3.214-5.857c-1.294-2.395-1.818-3.17-3.888-3.17h-1.436v9.027h-3.997V4.225zm-19.66 0h13.85l-1.092 3.448h-8.662v6.191h8.627v3.448h-8.627v6.65h9.788v3.445H109.41V4.225zM96.504 14.898h6.42v10.937a16.188 16.188 0 0 1-7.62 1.865c-7.233 0-11.102-4.893-11.102-11.549 0-7.041 4.372-12.216 11.246-12.216 2.405 0 4.754.612 6.524 1.562l-1.124 3.56c-1.505-.975-3.314-1.566-5.098-1.566-4.866 0-7.261 3.45-7.261 8.377 0 5.002 2.362 8.277 7.118 8.277 1.473 0 2.395-.283 3.266-.705v-5.194h-3.43l1.061-3.348zm-20.543.937c0-5.142-2.03-8.345-6.215-8.345-4.087 0-6.215 3.064-6.215 8.345 0 5.246 2.128 8.31 6.215 8.31 4.054 0 6.215-3.064 6.215-8.31zm-16.717 0c0-7.043 3.971-11.9 10.502-11.9 6.531 0 10.503 4.893 10.503 11.9 0 7.112-4.074 11.865-10.503 11.865-6.497 0-10.502-4.753-10.502-11.865zm-12.241-.9c3.441 0 4.15-2.216 4.15-3.66 0-1.233-.616-3.592-4.15-3.592h-2.676v7.252h2.676zM40.328 4.232h6.78c6.21 0 8.148 3.97 8.148 7.067 0 4.342-3.19 6.003-4.111 6.358v.147c.44.13 1.382.588 2.603 2.849l3.721 6.76h-4.604l-3.214-5.857c-1.294-2.395-1.819-3.17-3.888-3.17h-1.436v9.028h-3.999V4.232z"></path></svg> 