<?xml version="1.0" encoding="utf-8"?>
<svg viewBox="0 123.067 519.171 198.207" xmlns="http://www.w3.org/2000/svg">
  <path d="M 470.687 234.228 C 469.671 226.394 467.931 221.896 464.014 216.674 C 457.485 207.969 446.895 203.036 435.144 203.036 C 413.093 203.036 395.684 220.301 395.684 242.207 C 395.684 263.244 412.222 279.347 433.983 279.347 C 445.154 279.347 455.019 274.85 461.692 266.726 C 465.754 261.793 468.076 257.731 471.267 249.171 L 469.962 248.591 C 464.014 257.441 457.195 261.213 446.895 261.213 C 430.792 261.213 422.813 252.363 422.668 234.228 L 470.687 234.228 Z M 422.523 232.487 C 422.523 214.788 427.02 204.922 434.854 204.922 C 439.786 204.922 442.543 207.969 443.848 214.933 C 444.574 218.705 444.864 223.202 444.864 232.487 L 422.523 232.487 Z" fill="#142634"/>
  <path d="M 342.767 179.969 C 347.699 180.114 350.31 181.275 352.341 184.177 C 354.663 187.223 355.243 190.56 355.243 199.265 L 355.243 258.892 C 355.243 273.69 354.082 275.576 344.507 276.011 L 344.507 277.462 L 391.511 277.462 L 391.511 276.011 C 382.081 275.576 380.921 273.545 380.921 258.892 L 380.921 168.218 C 372.652 171.119 355.968 175.617 342.621 178.373 L 342.767 179.969 Z" fill="#142634"/>
  <path d="M 289.796 168.218 C 281.817 171.119 264.263 175.762 251.496 178.373 L 251.787 179.969 C 256.574 180.114 259.185 181.275 261.216 184.177 C 263.538 187.223 264.118 190.56 264.118 199.265 L 264.118 279.348 L 265.569 279.348 C 266.729 275.141 268.76 273.4 272.097 273.4 C 273.403 273.4 273.983 273.545 276.449 274.415 C 289.651 278.913 291.972 279.348 298.936 279.348 C 322.002 279.348 339.266 261.358 339.266 237.13 C 339.266 217.4 327.37 203.037 310.977 203.037 C 303.578 203.037 296.759 205.793 289.796 211.596 L 289.796 168.218 Z M 289.796 213.918 C 292.842 210.871 295.164 209.855 298.5 209.855 C 307.93 209.855 312.137 219.866 312.137 242.643 C 312.137 265.856 307.64 277.462 298.5 277.462 C 292.262 277.462 289.796 273.109 289.796 261.794 L 289.796 213.918 Z" fill="#142634"/>
  <path d="M 124.904 277.461 L 176.871 277.461 L 176.871 275.822 C 169.658 275.166 165.232 273.199 159.003 268.117 C 153.757 263.363 152.937 262.215 135.068 235.493 L 111.626 200.246 C 126.872 184.508 147.364 172.049 162.117 169.754 L 162.117 168.114 L 117.527 168.114 L 117.527 169.754 C 119.822 171.065 120.642 172.869 120.642 176.147 C 120.642 184.016 117.199 190.902 107.855 201.722 C 101.462 209.263 94.413 217.132 90.806 220.903 L 90.806 196.148 C 90.806 180.738 91.134 177.787 93.757 174.344 C 95.888 171.393 98.839 170.246 106.052 169.754 L 106.052 168.114 L 43.266 168.114 L 43.266 169.754 C 50.479 170.246 53.43 171.393 55.561 174.344 C 58.02 177.787 58.511 180.902 58.511 196.148 L 58.511 249.428 C 58.511 264.674 58.02 267.789 55.561 271.232 C 53.43 274.183 50.479 275.33 43.266 275.822 L 43.266 277.461 L 106.052 277.461 L 106.052 275.822 C 98.839 275.33 95.888 274.183 93.757 271.232 C 91.134 267.789 90.806 264.838 90.806 249.428 L 90.806 222.05 L 124.904 277.461 Z" fill="#142634"/>
  <path d="M 221.17 204.99 C 199.848 197.846 177.904 208.089 171.083 228.449 C 164.262 248.808 175.607 270.204 196.929 277.348 C 218.251 284.491 240.333 274.294 246.969 254.485 C 250.84 242.93 249.8 232.789 243.668 222.779 C 238.314 214.099 231.074 208.308 221.17 204.99 Z M 220.571 206.778 C 223.872 207.884 225.979 210.273 226.799 213.761 C 227.939 218.58 225.812 229.495 220.512 245.315 C 215.95 258.934 211.071 269.387 207.809 272.731 C 204.776 275.846 201.242 276.804 197.666 275.606 C 194.364 274.5 192.258 272.111 191.437 268.623 C 190.297 263.804 192.47 252.751 197.632 237.344 C 202.287 223.45 207.165 212.997 210.428 209.653 C 213.46 206.538 216.994 205.58 220.571 206.778 Z" fill="#142634"/>
</svg>