<svg width="120" height="120" viewBox="0 0 120 120" fill="none" xmlns="http://www.w3.org/2000/svg">
<path d="M77.7927 31.0993C77.8106 31.4318 77.1224 32.4983 76.494 31.0993C75.994 29.9862 75.994 26.9862 68.5227 22.7677C61.1626 18.612 45.9149 20.3454 40.5248 28.1834C36.3 34.327 43.7208 41.9063 47.7031 45.9349C56.3315 54.6635 78.3886 65.4595 80.676 79.1368C86.1295 111.746 17.0035 110.136 49.0084 73.1484C53.0317 68.4986 57.6876 64.3726 62.5278 60.5949C68.6087 55.8489 75.4238 50.7109 82.7846 48.1248C83.4426 47.8936 80.637 49.4903 80.2888 49.6623C76.2266 51.6694 72.4068 54.1949 68.74 56.8446C61.5246 62.0585 31.1688 86.8626 47.7437 96.0513C56.1086 100.689 77.5609 89.8629 73.4295 78.9116C67.7491 63.8545 29.1325 47.2866 34.5126 29.196C39.0079 14.0807 76.8678 13.8422 77.7927 31.0993Z" fill="black"/>
<path d="M67.994 32.9862L73.6705 44.9862L79.5654 32.9862M74.4226 32.9862L80.0991 44.9862L85.994 32.9862" stroke="black" stroke-width="1.5"/>
</svg>
