<svg width="182" height="38" viewBox="0 0 182 38" fill="none" xmlns="http://www.w3.org/2000/svg">
<path d="M27.589 2.46165C20.075 -1.41395 10.9587 -0.370604 4.51892 5.10199C1.76729 7.86226 0.242949 11.6105 0.288684 15.5038C0.164616 19.4474 3.14026 22.8049 7.07742 23.1637L27.589 2.46165" fill="#5B4292"/>
<path d="M0.288666 34.6826C7.77841 38.6005 16.8978 37.6148 23.3733 32.1873C26.1337 29.4413 27.6735 25.7041 27.6471 21.8145C27.7891 17.8723 24.8356 14.4992 20.902 14.1111L0.288666 34.6826" fill="#E56ABF"/>
<path d="M42.8673 29.3293C41.4887 28.9663 40.1914 28.346 39.0441 27.5014L40.7303 23.6859C41.7322 24.4137 42.847 24.9724 44.0302 25.3398C45.2578 25.7513 46.5439 25.962 47.8389 25.9636C48.9243 26.0409 50.0102 25.8201 50.9789 25.3253C51.5993 24.9854 51.9841 24.3343 51.9819 23.6279C51.9948 23.1244 51.775 22.643 51.3859 22.3223C50.9594 21.9556 50.4657 21.6747 49.9322 21.4953C49.2926 21.2922 48.4785 21.0601 47.3882 20.799C46.0212 20.4914 44.676 20.094 43.3615 19.6094C42.316 19.2176 41.3897 18.563 40.6722 17.7089C39.8837 16.7127 39.4811 15.4664 39.5383 14.1981C39.5223 12.9713 39.8769 11.7682 40.5559 10.7454C41.3058 9.63926 42.3685 8.78077 43.6087 8.2791C45.1789 7.65238 46.8606 7.35128 48.5512 7.39415C49.9227 7.38261 51.2903 7.54345 52.6215 7.87289C53.8393 8.17258 55.002 8.66218 56.0668 9.32363L54.4823 13.1971C52.684 12.1046 50.627 11.5088 48.5221 11.4707C47.4438 11.393 46.3665 11.6352 45.4258 12.1671C44.7935 12.5519 44.4121 13.2415 44.4227 13.9805C44.4199 14.7254 44.8848 15.3924 45.5857 15.6489C46.7179 16.1306 47.8968 16.4952 49.1036 16.7369C50.4701 17.0465 51.8151 17.4439 53.1303 17.9265C54.1694 18.3163 55.094 18.9597 55.8197 19.798C56.607 20.7829 57.0052 22.0216 56.939 23.2797C56.9458 24.4983 56.5862 25.6909 55.9069 26.7035C55.1413 27.8033 54.07 28.6556 52.8251 29.1552C51.235 29.8041 49.527 30.1153 47.8098 30.0692C46.1349 30.0657 44.4695 29.8165 42.8673 29.3293V29.3293Z" fill="#1C1C1C"/>
<path fill-rule="evenodd" clip-rule="evenodd" d="M63.6114 22.6269H76.1132C76.1858 21.8 76.1713 21.3648 76.1713 21.3648C76.205 19.7562 75.8193 18.1664 75.052 16.7514C74.3339 15.4569 73.2595 14.3947 71.9556 13.6904C69.1681 12.2403 65.8466 12.2403 63.059 13.6904C61.739 14.4112 60.6427 15.4801 59.89 16.7804C59.1064 18.1382 58.7046 19.682 58.727 21.2487C58.7046 22.8154 59.1064 24.3592 59.89 25.717C60.6955 27.0525 61.8721 28.1259 63.2771 28.8071C64.8109 29.5684 66.507 29.9467 68.2196 29.9096C70.7871 30.0853 73.2954 29.0872 75.0374 27.1967L72.4935 24.3678C71.9639 24.9046 71.331 25.329 70.6327 25.6154C69.8986 25.8888 69.1194 26.0217 68.3359 26.0071C67.2226 26.0471 66.1261 25.7265 65.2105 25.0932C64.3782 24.5081 63.8051 23.6243 63.6114 22.6269ZM63.5533 19.7691C63.6637 18.7737 64.1466 17.8567 64.9052 17.2013C66.0668 16.262 67.641 16.0095 69.039 16.5383C70.4369 17.0671 71.448 18.2974 71.694 19.7691H63.5533Z" fill="#1C1C1C"/>
<path fill-rule="evenodd" clip-rule="evenodd" d="M83.0037 22.6267H95.5199C95.5781 21.7998 95.5926 21.3646 95.5926 21.3646C95.6338 19.7552 95.2476 18.1636 94.4733 16.7512C93.7651 15.4543 92.6944 14.3907 91.3915 13.6902C88.5988 12.24 85.273 12.24 82.4803 13.6902C81.1611 14.4071 80.0686 15.4773 79.3258 16.7803C78.5422 18.1381 78.1405 19.6818 78.1629 21.2485C78.136 22.8177 78.5435 24.3638 79.3404 25.7168C80.1205 27.0467 81.2723 28.1205 82.6548 28.8069C84.1892 29.5666 85.8848 29.9448 87.5973 29.9095C90.1691 30.0853 92.6819 29.0875 94.4297 27.1966L91.8712 24.3676C91.3485 24.906 90.7199 25.3308 90.025 25.6153C89.2959 25.8889 88.5214 26.0218 87.7427 26.007C86.6249 26.046 85.5242 25.7256 84.6027 25.093C83.7748 24.5038 83.203 23.6219 83.0037 22.6267ZM82.9455 19.7688C83.056 18.7735 83.5388 17.8564 84.2974 17.201C85.0655 16.571 86.0367 16.241 87.0304 16.2725C88.0172 16.2441 88.9799 16.5799 89.7342 17.2155C90.4842 17.8717 90.9655 18.7807 91.0862 19.7688H82.9455Z" fill="#1C1C1C"/>
<path fill-rule="evenodd" clip-rule="evenodd" d="M115.654 29.6483V6.43652H110.842V14.6042C109.582 13.2229 107.768 12.4776 105.899 12.5731C104.421 12.5512 102.962 12.9163 101.669 13.6322C100.428 14.3495 99.4191 15.4067 98.7617 16.6787C98.0223 18.0869 97.6522 19.6591 97.686 21.2486C97.6622 22.8341 98.0371 24.4002 98.7762 25.8039C99.4385 27.0687 100.447 28.12 101.684 28.8359C102.977 29.5518 104.435 29.917 105.914 29.895C107.884 30.019 109.797 29.2069 111.074 27.7044V29.6483H115.654ZM110.958 21.2486C111.017 22.4942 110.584 23.7132 109.752 24.6433C108.976 25.4752 107.88 25.9349 106.742 25.9054C105.591 25.9399 104.479 25.4805 103.69 24.6433C102.861 23.7118 102.433 22.4924 102.498 21.2486C102.431 20.0045 102.86 18.7845 103.69 17.8538C104.474 17.0065 105.587 16.5407 106.742 16.5772C107.883 16.5476 108.981 17.0133 109.752 17.8538C110.587 18.7823 111.02 20.0024 110.958 21.2486Z" fill="#1C1C1C"/>
<path d="M146.646 12.8198L140.642 29.6629H136.034L132.313 19.2031L128.475 29.6629H123.852L117.892 12.8198H122.399L126.324 24.2226L130.379 12.8198H134.435L138.389 24.2226L142.416 12.8198L146.646 12.8198Z" fill="#1C1C1C"/>
<path fill-rule="evenodd" clip-rule="evenodd" d="M152.054 22.6269H164.556C164.556 21.8 164.585 21.3648 164.585 21.3648C164.619 19.7562 164.233 18.1664 163.465 16.7514C162.747 15.4569 161.673 14.3947 160.369 13.6904C157.582 12.2403 154.26 12.2403 151.472 13.6904C150.176 14.4176 149.105 15.4866 148.376 16.7804C147.598 18.1397 147.201 19.6833 147.228 21.2487C147.196 22.8166 147.598 24.3628 148.391 25.717C149.179 27.0401 150.329 28.1119 151.705 28.8071C153.245 29.5668 154.945 29.945 156.662 29.9096C159.23 30.0853 161.738 29.0872 163.48 27.1967L160.936 24.3678C160.406 24.9046 159.774 25.329 159.075 25.6154C158.341 25.8888 157.562 26.0217 156.778 26.0071C155.665 26.0471 154.569 25.7265 153.653 25.0932C152.821 24.5081 152.248 23.6243 152.054 22.6269ZM151.981 19.7691C152.104 18.7742 152.59 17.8596 153.348 17.2013C154.509 16.262 156.084 16.0095 157.482 16.5383C158.88 17.0671 159.891 18.2974 160.137 19.7691H151.981Z" fill="#1C1C1C"/>
<path d="M167.827 6.43652H172.624V29.6483H167.827V6.43652Z" fill="#1C1C1C"/>
<path d="M177.072 6.43652H181.869V29.6483H177.072V6.43652Z" fill="#1C1C1C"/>
</svg>
